<svg version="1" xmlns="http://www.w3.org/2000/svg" width="400" height="400" viewBox="0 0 300.000000 300.000000"><path d="M131 16.6c-4.1.6-8.8 1.4-10.5 1.7-5.5.9-21.8 6.7-29.3 10.4C66.4 40.8 43.9 62.5 30.8 87c-6.8 12.7-12.4 30.2-14.5 45-1 7-.9 28.8.1 36 2.7 19.7 10.5 40.4 21.4 57 5.1 7.6 7.2 10.1 18.2 21.1 24.5 24.4 55.9 37.7 91 38.4 34.9.8 66.3-10.7 92.7-34 7-6.1 16.5-16.7 19.9-22 1-1.7 2.1-3.2 2.4-3.5 1.3-1.1 5.7-8.9 9.7-17.1 4.6-9.6 8.5-21.6 10.9-33.5 2.2-10.8 2.6-32.7.8-43.4-.8-4.7-1.7-9.6-1.9-11-.2-1.4-.4-2.5-.5-2.5-.1 0-.3-.7-.5-1.5-.9-4.8-6.2-18.6-10-26.2-18.6-37.5-54.8-64.8-96-72.4-11.2-2.1-33.5-2.5-43.5-.8z"/></svg>